# xmcd
#
# Track frame offsets: 
#        150
#        40738
#        71698
#        98444
#        116657
#        133235
#        168103
#        195666
#        264789
#
# Disc length: 3894 seconds
#
# Revision: 0
# Processed by: cddbd v1.5.2PL0 Copyright (c) Steve Scherf et al.
# Submitted via: ExactAudioCopy v0.95b4
#
DISCID=710f3409
DTITLE=Eric Clapton - Double Trouble [CD4]
DYEAR=1995
DGENRE=Blues
TTITLE0=Everyday I have the blues
TTITLE1=Groanin' the blues
TTITLE2=Before you accuse me
TTITLE3=Someday after a while
TTITLE4=I'm tore down
TTITLE5=Have you ever loved a woman
TTITLE6=Crossroad blues
TTITLE7=Five long years
TTITLE8=Ain't nobody's business
EXTD=
EXTT0=
EXTT1=
EXTT2=
EXTT3=
EXTT4=
EXTT5=
EXTT6=
EXTT7=
EXTT8=
PLAYORDER=
